<svg xmlns="http://www.w3.org/2000/svg" xmlns:xlink="http://www.w3.org/1999/xlink" version="1.1" data-diagram-type="DESCRIPTION" style="width:1048px;height:364px;background:#FEFEFE;" width="1048px" height="364px" viewBox="0 0 1048 364" zoomAndPan="magnify" preserveAspectRatio="none" contentStyleType="text/css"><?plantuml 1.2026.7beta3?><defs/><g><rect x="0" y="0" width="1048" height="364" fill="#FEFEFE" style="stroke:none;stroke-width:1;"/><g class="title" data-source-line="4"><text x="340.8676" y="22.9951" fill="#000000" font-size="14" lengthAdjust="spacing" textLength="359.6729" font-weight="700" font-family="sans-serif">Word2Vec: palabras similares terminan cerca</text></g><!--entity Space--><g class="entity" data-qualified-name="Space" id="ent0001" data-source-line="8"><rect x="7" y="301.9586" width="138.9727" height="36.2969" fill="#E3F2FD" style="stroke:#181818;stroke-width:0.5;" rx="2.5" ry="2.5"/><text x="17" y="324.9537" fill="#000000" font-size="14" lengthAdjust="spacing" textLength="118.9727" font-family="sans-serif">Espacio vectorial</text></g><!--entity Rey--><g class="entity" data-qualified-name="Rey" id="ent0002" data-source-line="10"><ellipse cx="76.49" cy="133.0986" rx="8" ry="8" fill="#FFF176" style="stroke:#181818;stroke-width:0.5;"/><text x="65.1629" y="163.0938" fill="#000000" font-size="14" lengthAdjust="spacing" textLength="22.6543" font-family="sans-serif">rey</text></g><!--entity Reina--><g class="entity" data-qualified-name="Reina" id="ent0003" data-source-line="11"><ellipse cx="478.68" cy="66.0986" rx="8" ry="8" fill="#FFF176" style="stroke:#181818;stroke-width:0.5;"/><text x="460.8245" y="96.0938" fill="#000000" font-size="14" lengthAdjust="spacing" textLength="35.7109" font-family="sans-serif">reina</text></g><!--entity Hombre--><g class="entity" data-qualified-name="Hombre" id="ent0004" data-source-line="12"><ellipse cx="478.68" cy="156.0986" rx="8" ry="8" fill="#FFCC80" style="stroke:#181818;stroke-width:0.5;"/><text x="451.514" y="186.0938" fill="#000000" font-size="14" lengthAdjust="spacing" textLength="54.332" font-family="sans-serif">hombre</text></g><!--entity Mujer--><g class="entity" data-qualified-name="Mujer" id="ent0005" data-source-line="13"><ellipse cx="888.39" cy="155.0986" rx="8" ry="8" fill="#FFCC80" style="stroke:#181818;stroke-width:0.5;"/><text x="868.0052" y="185.0938" fill="#000000" font-size="14" lengthAdjust="spacing" textLength="40.7695" font-family="sans-serif">mujer</text></g><!--entity Trono--><g class="entity" data-qualified-name="Trono" id="ent0006" data-source-line="14"><ellipse cx="888.39" cy="61.0986" rx="8" ry="8" fill="#C5E1A5" style="stroke:#181818;stroke-width:0.5;"/><text x="869.7655" y="91.0938" fill="#000000" font-size="14" lengthAdjust="spacing" textLength="37.249" font-family="sans-serif">trono</text></g><!--entity Corona--><g class="entity" data-qualified-name="Corona" id="ent0007" data-source-line="15"><ellipse cx="1009.39" cy="218.0986" rx="8" ry="8" fill="#C5E1A5" style="stroke:#181818;stroke-width:0.5;"/><text x="985.3719" y="248.0938" fill="#000000" font-size="14" lengthAdjust="spacing" textLength="48.0361" font-family="sans-serif">corona</text></g><g class="entity" data-qualified-name="GMN16" id="ent0017" data-source-line="28"><path d="M310.97,290.6586 L310.97,316.0986 L146.28,320.0986 L310.97,324.0986 L310.97,349.5493 A0,0 0 0 0 310.97,349.5493 L646.3889,349.5493 A0,0 0 0 0 646.3889,349.5493 L646.3889,300.6586 L636.3889,290.6586 L310.97,290.6586 A0,0 0 0 0 310.97,290.6586" style="stroke:#181818;stroke-width:0.5;" fill="#FEFFDD"/><path d="M636.3889,290.6586 L636.3889,300.6586 L646.3889,300.6586 L636.3889,290.6586" style="stroke:#181818;stroke-width:0.5;" fill="#FEFFDD"/><text x="316.97" y="308.6538" fill="#000000" font-size="14" lengthAdjust="spacing" textLength="314.4189" font-family="sans-serif">Word2Vec aprende estas posiciones leyendo</text><text x="316.97" y="324.9506" fill="#000000" font-size="14" lengthAdjust="spacing" textLength="280.54" font-family="sans-serif">montones de texto: "el rey usa corona",</text><text x="316.97" y="341.2475" fill="#000000" font-size="14" lengthAdjust="spacing" textLength="248.7939" font-family="sans-serif">"la reina se sienta en el trono", etc.</text></g><!--link Rey to Reina--><!--link Rey to Reina--><g class="link" data-entity-1="ent0002" data-entity-2="ent0003" id="lnk12" data-source-line="22" data-link-type="dependency"><path d="M85.68,132.5686 C113.31,130.6686 205.63,123.7486 280.97,111.0986 C354.91,98.6886 437.8632,76.8934 464.6832,69.6434" style="stroke:#181818;stroke-width:1;" fill="none" id="Rey-to-Reina-1"/><polygon points="469.51,68.3386,459.778,66.8258,464.6832,69.6434,461.8657,74.5486,469.51,68.3386" fill="#181818" style="stroke:#181818;stroke-width:1;stroke-linejoin:miter;stroke-miterlimit:10;"/><text x="176.97" y="107.0938" fill="#000000" font-size="14" lengthAdjust="spacing" textLength="103.7148" font-family="sans-serif">distancia corta</text></g><!--link Hombre to Mujer--><!--link Trono to Corona--><!--link Rey to Hombre--><g class="link" data-entity-1="ent0002" data-entity-2="ent0004" id="lnk11" data-source-line="21" data-link-type="dependency"><path d="M85.96,136.8686 C102.73,144.0786 141.52,159.6486 175.97,165.0986 C291.39,183.3886 429.7319,163.7726 464.7519,158.2126" style="stroke:#181818;stroke-width:1;" fill="none" id="Rey-to-Hombre"/><polygon points="469.69,157.4286,460.1741,154.8893,464.7519,158.2126,461.4285,162.7904,469.69,157.4286" fill="#181818" style="stroke:#181818;stroke-width:1;stroke-linejoin:miter;stroke-miterlimit:10;"/><text x="176.97" y="161.0938" fill="#000000" font-size="14" lengthAdjust="spacing" textLength="103.7148" font-family="sans-serif">distancia corta</text></g><!--link Reina to Mujer--><g class="link" data-entity-1="ent0003" data-entity-2="ent0005" id="lnk13" data-source-line="23" data-link-type="dependency"><path d="M487.83,67.8786 C540.13,79.2986 823.3351,141.122 874.6751,152.332" style="stroke:#181818;stroke-width:1;" fill="none" id="Reina-to-Mujer"/><polygon points="879.56,153.3986,871.6205,147.5708,874.6751,152.332,869.9139,155.3867,879.56,153.3986" fill="#181818" style="stroke:#181818;stroke-width:1;stroke-linejoin:miter;stroke-miterlimit:10;"/><text x="701.89" y="107.0938" fill="#000000" font-size="14" lengthAdjust="spacing" textLength="103.7148" font-family="sans-serif">distancia corta</text></g><!--link Rey to Corona--><g class="link" data-entity-1="ent0002" data-entity-2="ent0007" id="lnk14" data-source-line="24" data-link-type="dependency"><path d="M85.83,138.2186 C102.38,148.1286 140.8,169.9286 175.97,181.0986 C233.91,199.5086 250.44,197.5486 310.97,203.0986 C593.78,229.0586 938.6722,220.1983 995.4422,218.4983" style="stroke:#181818;stroke-width:1;" fill="none" id="Rey-to-Corona"/><polygon points="1000.44,218.3486,991.3243,214.6198,995.4422,218.4983,991.5638,222.6162,1000.44,218.3486" fill="#181818" style="stroke:#181818;stroke-width:1;stroke-linejoin:miter;stroke-miterlimit:10;"/><text x="677.39" y="216.0938" fill="#000000" font-size="14" lengthAdjust="spacing" textLength="152.6465" font-family="sans-serif">cercano en el espacio</text></g><!--link Reina to Trono--><g class="link" data-entity-1="ent0003" data-entity-2="ent0006" id="lnk15" data-source-line="25" data-link-type="dependency"><path d="M487.83,65.9986 C540.13,65.3586 823.2204,61.89 874.5604,61.26" style="stroke:#181818;stroke-width:1;" fill="none" id="Reina-to-Trono"/><polygon points="879.56,61.1986,870.5116,57.3094,874.5604,61.26,870.6098,65.3088,879.56,61.1986" fill="#181818" style="stroke:#181818;stroke-width:1;stroke-linejoin:miter;stroke-miterlimit:10;"/><text x="677.39" y="58.0938" fill="#000000" font-size="14" lengthAdjust="spacing" textLength="152.6465" font-family="sans-serif">cercano en el espacio</text></g><?plantuml-src VLB1Rjim3BthAuZasWnBktP53WC6DqOlkwp5UYXsO6GcKIkB1gKCJRz-bEGQ0ReElj1ypu_Fv8lFBWmesCC6xVDE-12wXZqBpDjrVaoS61rjyU1Joo7TkLU2vHTZxbto10yitValiYiOqED6C49qlVCe526Hz2vW04jYqHXFsmI9GTnkdw1pGZOv3iRa0iDEzMRhEA1r37-qnUBGpq0rxxH9C5zVjEVjZJ7MYSraeME1Vz9HNRVjyklL2QQZHrIhT_YU-urG8ToMCZEQvlhpnEWFJoI5y2DNx_0a7BZWzxc2UNEvNdw_d73BsguMcb9E39CDBnxthkie_5vygnRDwECKA9DDrJ_jLy5HID_7JrUwrQYhj0v1noUS27K9_y9pV_4swZyAup-iwZNL3mKW3rGFTY9KtNx4Cu4JZH7WRRsiWIb8W8DGw4ZvIHStS7JwLT0qUJegmChjDOUbfRH4BubNCDC9cWOun68xx_rCcJEFK880aJIO51AETkhnpe2I_MHK5xAjlm00?></g></svg>