<svg xmlns="http://www.w3.org/2000/svg" xmlns:xlink="http://www.w3.org/1999/xlink" version="1.1" data-diagram-type="SEQUENCE" style="width:1154px;height:553px;background:#FEFEFE;" width="1154px" height="553px" viewBox="0 0 1154 553" zoomAndPan="magnify" preserveAspectRatio="none" contentStyleType="text/css"><?plantuml 1.2026.7beta3?><defs/><g><rect x="0" y="0" width="1154" height="553" fill="#FEFEFE" style="stroke:none;stroke-width:1;"/><g class="title" data-source-line="4"><text x="448.7178" y="27.9951" fill="#000000" font-size="14" lengthAdjust="spacing" textLength="250.2021" font-weight="700" font-family="sans-serif">Flujo de una consulta en el POC</text></g><g class="participant-lifeline" data-qualified-name="Usuario" data-entity-uid="part1" id="part1-lifeline" data-source-line="6"><g><title>Usuario</title><rect x="30.6021" y="120.8906" width="8" height="347.5625" fill="#000000" fill-opacity="0.00000"/><line x1="34" y1="120.8906" x2="34" y2="468.4531" style="stroke:#181818;stroke-width:0.5;stroke-dasharray:5,5;"/></g></g><g class="participant-lifeline" data-qualified-name="CLI" data-entity-uid="part2" id="part2-lifeline" data-source-line="7"><g><title>scripts.search.py</title><rect x="264.9028" y="120.8906" width="8" height="347.5625" fill="#000000" fill-opacity="0.00000"/><line x1="268.1738" y1="120.8906" x2="268.1738" y2="468.4531" style="stroke:#181818;stroke-width:0.5;stroke-dasharray:5,5;"/></g></g><g class="participant-lifeline" data-qualified-name="EMB" data-entity-uid="part3" id="part3-lifeline" data-source-line="8"><g><title>src.embeddings.py</title><rect x="524.4282" y="120.8906" width="8" height="347.5625" fill="#000000" fill-opacity="0.00000"/><line x1="527.6514" y1="120.8906" x2="527.6514" y2="468.4531" style="stroke:#181818;stroke-width:0.5;stroke-dasharray:5,5;"/></g></g><g class="participant-lifeline" data-qualified-name="DBM" data-entity-uid="part4" id="part4-lifeline" data-source-line="9"><g><title>src.database.py</title><rect x="671.2017" y="120.8906" width="8" height="347.5625" fill="#000000" fill-opacity="0.00000"/><line x1="674.2051" y1="120.8906" x2="674.2051" y2="468.4531" style="stroke:#181818;stroke-width:0.5;stroke-dasharray:5,5;"/></g></g><g class="participant-lifeline" data-qualified-name="PG" data-entity-uid="part5" id="part5-lifeline" data-source-line="10"><g><title>PostgreSQL</title><rect x="883.1831" y="120.8906" width="8" height="347.5625" fill="#000000" fill-opacity="0.00000"/><line x1="886.8066" y1="120.8906" x2="886.8066" y2="468.4531" style="stroke:#181818;stroke-width:0.5;stroke-dasharray:5,5;"/></g></g><g class="participant participant-head" data-qualified-name="Usuario" data-entity-uid="part1" id="part1-head" data-source-line="6"><text x="5" y="117.5889" fill="#000000" font-size="14" lengthAdjust="spacing" textLength="53.2041" font-family="sans-serif">Usuario</text><ellipse cx="34.6021" cy="53.0938" rx="8" ry="8" fill="#E2E2F0" style="stroke:#181818;stroke-width:0.5;"/><path d="M34.6021,61.0938 L34.6021,88.0938 M21.6021,69.0938 L47.6021,69.0938 M34.6021,88.0938 L21.6021,103.0938 M34.6021,88.0938 L47.6021,103.0938" style="stroke:#181818;stroke-width:0.5;" fill="none"/></g><g class="participant participant-tail" data-qualified-name="Usuario" data-entity-uid="part1" id="part1-tail" data-source-line="6"><text x="5" y="480.4482" fill="#000000" font-size="14" lengthAdjust="spacing" textLength="53.2041" font-family="sans-serif">Usuario</text><ellipse cx="34.6021" cy="492.25" rx="8" ry="8" fill="#E2E2F0" style="stroke:#181818;stroke-width:0.5;"/><path d="M34.6021,500.25 L34.6021,527.25 M21.6021,508.25 L47.6021,508.25 M34.6021,527.25 L21.6021,542.25 M34.6021,527.25 L47.6021,542.25" style="stroke:#181818;stroke-width:0.5;" fill="none"/></g><g class="participant participant-head" data-qualified-name="CLI" data-entity-uid="part2" id="part2-head" data-source-line="7"><rect x="202.1738" y="89.5938" width="133.458" height="30.2969" fill="#E2E2F0" style="stroke:#181818;stroke-width:0.5;" rx="2.5" ry="2.5"/><text x="209.1738" y="109.5889" fill="#000000" font-size="14" lengthAdjust="spacing" textLength="119.458" font-family="sans-serif">scripts/search.py</text></g><g class="participant participant-tail" data-qualified-name="CLI" data-entity-uid="part2" id="part2-tail" data-source-line="7"><rect x="202.1738" y="467.4531" width="133.458" height="30.2969" fill="#E2E2F0" style="stroke:#181818;stroke-width:0.5;" rx="2.5" ry="2.5"/><text x="209.1738" y="487.4482" fill="#000000" font-size="14" lengthAdjust="spacing" textLength="119.458" font-family="sans-serif">scripts/search.py</text></g><g class="participant participant-head" data-qualified-name="EMB" data-entity-uid="part3" id="part3-head" data-source-line="8"><rect x="454.6514" y="89.5938" width="147.5537" height="30.2969" fill="#E2E2F0" style="stroke:#181818;stroke-width:0.5;" rx="2.5" ry="2.5"/><text x="461.6514" y="109.5889" fill="#000000" font-size="14" lengthAdjust="spacing" textLength="133.5537" font-family="sans-serif">src/embeddings.py</text></g><g class="participant participant-tail" data-qualified-name="EMB" data-entity-uid="part3" id="part3-tail" data-source-line="8"><rect x="454.6514" y="467.4531" width="147.5537" height="30.2969" fill="#E2E2F0" style="stroke:#181818;stroke-width:0.5;" rx="2.5" ry="2.5"/><text x="461.6514" y="487.4482" fill="#000000" font-size="14" lengthAdjust="spacing" textLength="133.5537" font-family="sans-serif">src/embeddings.py</text></g><g class="participant participant-head" data-qualified-name="DBM" data-entity-uid="part4" id="part4-head" data-source-line="9"><rect x="612.2051" y="89.5938" width="125.9932" height="30.2969" fill="#E2E2F0" style="stroke:#181818;stroke-width:0.5;" rx="2.5" ry="2.5"/><text x="619.2051" y="109.5889" fill="#000000" font-size="14" lengthAdjust="spacing" textLength="111.9932" font-family="sans-serif">src/database.py</text></g><g class="participant participant-tail" data-qualified-name="DBM" data-entity-uid="part4" id="part4-tail" data-source-line="9"><rect x="612.2051" y="467.4531" width="125.9932" height="30.2969" fill="#E2E2F0" style="stroke:#181818;stroke-width:0.5;" rx="2.5" ry="2.5"/><text x="619.2051" y="487.4482" fill="#000000" font-size="14" lengthAdjust="spacing" textLength="111.9932" font-family="sans-serif">src/database.py</text></g><g class="participant participant-head" data-qualified-name="PG" data-entity-uid="part5" id="part5-head" data-source-line="10"><text x="843.8066" y="101.292" fill="#000000" font-size="14" lengthAdjust="spacing" textLength="80.7529" font-family="sans-serif">PostgreSQL</text><text x="845.0029" y="117.5889" fill="#000000" font-size="14" lengthAdjust="spacing" textLength="78.3604" font-family="sans-serif">+ pgvector</text><path d="M869.1831,52.2969 C869.1831,42.2969 887.1831,42.2969 887.1831,42.2969 C887.1831,42.2969 905.1831,42.2969 905.1831,52.2969 L905.1831,78.2969 C905.1831,88.2969 887.1831,88.2969 887.1831,88.2969 C887.1831,88.2969 869.1831,88.2969 869.1831,78.2969 L869.1831,52.2969" style="stroke:#181818;stroke-width:0.5;" fill="#E2E2F0"/><path d="M869.1831,52.2969 C869.1831,62.2969 887.1831,62.2969 887.1831,62.2969 C887.1831,62.2969 905.1831,62.2969 905.1831,52.2969" style="stroke:#181818;stroke-width:0.5;" fill="none"/></g><g class="participant participant-tail" data-qualified-name="PG" data-entity-uid="part5" id="part5-tail" data-source-line="10"><text x="843.8066" y="480.4482" fill="#000000" font-size="14" lengthAdjust="spacing" textLength="80.7529" font-family="sans-serif">PostgreSQL</text><text x="845.0029" y="496.7451" fill="#000000" font-size="14" lengthAdjust="spacing" textLength="78.3604" font-family="sans-serif">+ pgvector</text><path d="M869.1831,510.0469 C869.1831,500.0469 887.1831,500.0469 887.1831,500.0469 C887.1831,500.0469 905.1831,500.0469 905.1831,510.0469 L905.1831,536.0469 C905.1831,546.0469 887.1831,546.0469 887.1831,546.0469 C887.1831,546.0469 869.1831,546.0469 869.1831,536.0469 L869.1831,510.0469" style="stroke:#181818;stroke-width:0.5;" fill="#E2E2F0"/><path d="M869.1831,510.0469 C869.1831,520.0469 887.1831,520.0469 887.1831,520.0469 C887.1831,520.0469 905.1831,520.0469 905.1831,510.0469" style="stroke:#181818;stroke-width:0.5;" fill="none"/></g><g class="message" data-entity-1="part1" data-entity-2="part2" id="msg1" data-source-line="12"><polygon points="256.9028,149.1875,266.9028,153.1875,256.9028,157.1875,260.9028,153.1875" fill="#181818" style="stroke:#181818;stroke-width:1;stroke-linejoin:miter;stroke-miterlimit:10;"/><line x1="34.6021" y1="153.1875" x2="262.9028" y2="153.1875" style="stroke:#181818;stroke-width:1;"/><text x="41.6021" y="147.8857" fill="#000000" font-size="14" lengthAdjust="spacing" textLength="210.3008" font-family="sans-serif">escribe "inteligencia artificial"</text></g><g class="message" data-entity-1="part2" data-entity-2="part3" id="msg2" data-source-line="13"><polygon points="516.4282,179.4844,526.4282,183.4844,516.4282,187.4844,520.4282,183.4844" fill="#181818" style="stroke:#181818;stroke-width:1;stroke-linejoin:miter;stroke-miterlimit:10;"/><line x1="268.9028" y1="183.4844" x2="522.4282" y2="183.4844" style="stroke:#181818;stroke-width:1;"/><text x="275.9028" y="178.1826" fill="#000000" font-size="14" lengthAdjust="spacing" textLength="235.5254" font-family="sans-serif">genera embedding de la consulta</text></g><g class="message" data-entity-1="part3" data-entity-2="part2" id="msg3" data-source-line="14"><polygon points="279.9028,209.7813,269.9028,213.7813,279.9028,217.7813,275.9028,213.7813" fill="#181818" style="stroke:#181818;stroke-width:1;stroke-linejoin:miter;stroke-miterlimit:10;"/><line x1="273.9028" y1="213.7813" x2="527.4282" y2="213.7813" style="stroke:#181818;stroke-width:1;stroke-dasharray:2,2;"/><text x="285.9028" y="208.4795" fill="#000000" font-size="14" lengthAdjust="spacing" textLength="199.3154" font-family="sans-serif">vector de 1024 dimensiones</text></g><g class="message" data-entity-1="part2" data-entity-2="part4" id="msg4" data-source-line="15"><polygon points="663.2017,240.0781,673.2017,244.0781,663.2017,248.0781,667.2017,244.0781" fill="#181818" style="stroke:#181818;stroke-width:1;stroke-linejoin:miter;stroke-miterlimit:10;"/><line x1="268.9028" y1="244.0781" x2="669.2017" y2="244.0781" style="stroke:#181818;stroke-width:1;"/><text x="275.9028" y="238.7764" fill="#000000" font-size="14" lengthAdjust="spacing" textLength="223.665" font-family="sans-serif">search_similar(vector, top_k=5)</text></g><g class="message" data-entity-1="part4" data-entity-2="part5" id="msg5" data-source-line="16"><polygon points="875.1831,286.6719,885.1831,290.6719,875.1831,294.6719,879.1831,290.6719" fill="#181818" style="stroke:#181818;stroke-width:1;stroke-linejoin:miter;stroke-miterlimit:10;"/><line x1="675.2017" y1="290.6719" x2="881.1831" y2="290.6719" style="stroke:#181818;stroke-width:1;"/><text x="682.2017" y="269.0732" fill="#000000" font-size="14" lengthAdjust="spacing" textLength="147.6631" font-family="sans-serif">SELECT ... ORDER BY</text><text x="682.2017" y="285.3701" fill="#000000" font-size="14" lengthAdjust="spacing" textLength="172.3887" font-family="sans-serif">embedding &lt;=> :vector</text></g><g class="message" data-entity-1="part5" data-entity-2="part4" id="msg6" data-source-line="17"><polygon points="686.2017,316.9688,676.2017,320.9688,686.2017,324.9688,682.2017,320.9688" fill="#181818" style="stroke:#181818;stroke-width:1;stroke-linejoin:miter;stroke-miterlimit:10;"/><line x1="680.2017" y1="320.9688" x2="886.1831" y2="320.9688" style="stroke:#181818;stroke-width:1;stroke-dasharray:2,2;"/><text x="692.2017" y="315.667" fill="#000000" font-size="14" lengthAdjust="spacing" textLength="187.9814" font-family="sans-serif">documentos más cercanos</text></g><g class="message" data-entity-1="part4" data-entity-2="part2" id="msg7" data-source-line="18"><polygon points="279.9028,347.2656,269.9028,351.2656,279.9028,355.2656,275.9028,351.2656" fill="#181818" style="stroke:#181818;stroke-width:1;stroke-linejoin:miter;stroke-miterlimit:10;"/><line x1="273.9028" y1="351.2656" x2="674.2017" y2="351.2656" style="stroke:#181818;stroke-width:1;stroke-dasharray:2,2;"/><text x="285.9028" y="345.9639" fill="#000000" font-size="14" lengthAdjust="spacing" textLength="131.7969" font-family="sans-serif">resultados + score</text></g><g class="message" data-entity-1="part2" data-entity-2="part1" id="msg8" data-source-line="19"><polygon points="45.6021,377.5625,35.6021,381.5625,45.6021,385.5625,41.6021,381.5625" fill="#181818" style="stroke:#181818;stroke-width:1;stroke-linejoin:miter;stroke-miterlimit:10;"/><line x1="39.6021" y1="381.5625" x2="267.9028" y2="381.5625" style="stroke:#181818;stroke-width:1;stroke-dasharray:2,2;"/><text x="51.6021" y="376.2607" fill="#000000" font-size="14" lengthAdjust="spacing" textLength="142.7002" font-family="sans-serif">tabla con resultados</text></g><path d="M892,394.5625 L892,452.5625 L1143,452.5625 L1143,404.5625 L1133,394.5625 L892,394.5625" style="stroke:#181818;stroke-width:0.5;" fill="#FEFFDD"/><path d="M1133,394.5625 L1133,404.5625 L1143,404.5625 L1133,394.5625" style="stroke:#181818;stroke-width:0.5;" fill="#FEFFDD"/><text x="898" y="412.5576" fill="#000000" font-size="14" lengthAdjust="spacing" textLength="200.4707" font-family="sans-serif">La operación &lt;=> calcula la</text><text x="898" y="428.8545" fill="#000000" font-size="14" lengthAdjust="spacing" textLength="230.6377" font-family="sans-serif">distancia coseno. Cuanto menor,</text><text x="898" y="445.1514" fill="#000000" font-size="14" lengthAdjust="spacing" textLength="130.3818" font-family="sans-serif">mayor la similitud.</text><?plantuml-src PP51RXD144NtVOgIsO0IJmWA6ujaOSUEa1p5n66152agTvSdZNkwHbqzIE4sd84Zv69KUp8E0irkwjN_ltxBpiSM4pQmGRkh4tVHpJXmWZUBUVcC70X7M-n2Nd3CQ_-JuFJCc3kV0y4YTDzPvz151CjH54EW21HWTJCp1crMoQ_IOV9iL2vxwrkC6KPYas-pd0XXiezL-pG259WjF_-39Nj2pOQSyx6M0PjVJ__776RSeD00NKwlpV0FHYkMN2TQVrdUnoDewnzKikt1rPKnBnbXV54om0Ie1Dpeee-PWgyfMezGFBVgYc5a2gUuPb5SvvJqzY5gQIMybc8ADJw8z-Q5ENt_uGoSRoYAvqWog6fuvVfo7iGtFc1wswyTG-RsONV-yPqfbCAhAsNNy-LyTWTLLS7DxUNy5gRVxkDhda_d5p3f1OpouuE7OzkfVMQ1vlcNWALaCRBqueV8YVQ7ECMEG2mdwgCgC7Gt0IsxF_elt9Z8cI3v-Z43RqlR04i4RhKmwvz_ntqsYy5skXnGnyvBndtXbeKYLp3hz9qPDAWMe4I3JrgWyljkVEvSPIWwA5v_0000?></g></svg>