<svg xmlns="http://www.w3.org/2000/svg" xmlns:xlink="http://www.w3.org/1999/xlink" version="1.1" data-diagram-type="DESCRIPTION" style="width:781px;height:775px;background:#FEFEFE;" width="781px" height="775px" viewBox="0 0 781 775" zoomAndPan="magnify" preserveAspectRatio="none" contentStyleType="text/css"><?plantuml 1.2026.7beta3?><defs/><g><rect x="0" y="0" width="781" height="775" fill="#FEFEFE" style="stroke:none;stroke-width:1;"/><g class="title" data-source-line="12"><text x="206.7222" y="22.9951" fill="#000000" font-size="14" lengthAdjust="spacing" textLength="361.4023" font-weight="700" font-family="sans-serif">Arquitectura del POC de Búsqueda Semántica</text></g><!--entity CSV--><g class="entity" data-qualified-name="CSV" id="ent0001" data-source-line="14"><rect x="14.98" y="44.2969" width="219.8076" height="52.5938" fill="#FFF9C4" style="stroke:#181818;stroke-width:0.5;" rx="2.5" ry="2.5"/><text x="105.6577" y="67.292" fill="#000000" font-size="14" lengthAdjust="spacing" textLength="38.4521" font-style="italic" font-family="sans-serif">«file»</text><text x="24.98" y="83.5889" fill="#000000" font-size="14" lengthAdjust="spacing" textLength="199.8076" font-family="sans-serif">data/sample_documents.csv</text></g><!--entity IDX--><g class="entity" data-qualified-name="IDX" id="ent0002" data-source-line="15"><rect x="40.02" y="173.8869" width="169.7275" height="52.5938" fill="#C8E6C9" style="stroke:#181818;stroke-width:0.5;" rx="2.5" ry="2.5"/><text x="96.812" y="196.882" fill="#000000" font-size="14" lengthAdjust="spacing" textLength="56.1436" font-style="italic" font-family="sans-serif">«script»</text><text x="50.02" y="213.1789" fill="#000000" font-size="14" lengthAdjust="spacing" textLength="149.7275" font-family="sans-serif">scripts/index_data.py</text></g><!--entity IND--><g class="entity" data-qualified-name="IND" id="ent0003" data-source-line="16"><rect x="64.88" y="303.4869" width="120.0029" height="52.5938" fill="#BBDEFB" style="stroke:#181818;stroke-width:0.5;" rx="2.5" ry="2.5"/><text x="105.9425" y="326.482" fill="#000000" font-size="14" lengthAdjust="spacing" textLength="37.8779" font-style="italic" font-family="sans-serif">«src»</text><text x="74.88" y="342.7789" fill="#000000" font-size="14" lengthAdjust="spacing" textLength="100.0029" font-family="sans-serif">src/indexer.py</text></g><!--entity EMB--><g class="entity" data-qualified-name="EMB" id="ent0004" data-source-line="17"><rect x="158.11" y="433.0769" width="153.5537" height="52.5938" fill="#BBDEFB" style="stroke:#181818;stroke-width:0.5;" rx="2.5" ry="2.5"/><text x="215.9479" y="456.072" fill="#000000" font-size="14" lengthAdjust="spacing" textLength="37.8779" font-style="italic" font-family="sans-serif">«src»</text><text x="168.11" y="472.3689" fill="#000000" font-size="14" lengthAdjust="spacing" textLength="133.5537" font-family="sans-serif">src/embeddings.py</text></g><!--entity JINA--><g class="entity" data-qualified-name="JINA" id="ent0005" data-source-line="18"><rect x="7" y="570.8169" width="97.7695" height="52.5938" fill="#FFE0B2" style="stroke:#181818;stroke-width:0.5;" rx="2.5" ry="2.5"/><text x="18" y="593.812" fill="#000000" font-size="14" lengthAdjust="spacing" textLength="75.7695" font-style="italic" font-family="sans-serif">«provider»</text><text x="34.0713" y="610.1089" fill="#000000" font-size="14" lengthAdjust="spacing" textLength="43.627" font-family="sans-serif">Jina AI</text></g><!--entity LOC--><g class="entity" data-qualified-name="LOC" id="ent0006" data-source-line="19"><rect x="139.59" y="562.6769" width="190.584" height="68.8906" fill="#FFE0B2" style="stroke:#181818;stroke-width:0.5;" rx="2.5" ry="2.5"/><text x="196.9972" y="585.672" fill="#000000" font-size="14" lengthAdjust="spacing" textLength="75.7695" font-style="italic" font-family="sans-serif">«provider»</text><text x="149.59" y="601.9689" fill="#000000" font-size="14" lengthAdjust="spacing" textLength="36.5313" font-family="sans-serif">Local</text><text x="149.59" y="618.2657" fill="#000000" font-size="14" lengthAdjust="spacing" textLength="170.584" font-family="sans-serif">(sentence-transformers)</text></g><!--entity DBM--><g class="entity" data-qualified-name="DBM" id="ent0007" data-source-line="20"><rect x="385.89" y="570.8169" width="131.9932" height="52.5938" fill="#BBDEFB" style="stroke:#181818;stroke-width:0.5;" rx="2.5" ry="2.5"/><text x="432.9476" y="593.812" fill="#000000" font-size="14" lengthAdjust="spacing" textLength="37.8779" font-style="italic" font-family="sans-serif">«src»</text><text x="395.89" y="610.1089" fill="#000000" font-size="14" lengthAdjust="spacing" textLength="111.9932" font-family="sans-serif">src/database.py</text></g><!--entity PG--><g class="entity" data-qualified-name="PG" id="ent0008" data-source-line="21"><rect x="359.1" y="708.5669" width="183.5635" height="52.5938" fill="#E1BEE7" style="stroke:#181818;stroke-width:0.5;" rx="2.5" ry="2.5"/><text x="433.4296" y="731.562" fill="#000000" font-size="14" lengthAdjust="spacing" textLength="34.9043" font-style="italic" font-family="sans-serif">«db»</text><text x="369.1" y="747.8589" fill="#000000" font-size="14" lengthAdjust="spacing" textLength="163.5635" font-family="sans-serif">PostgreSQL + pgvector</text></g><!--entity SEARCH--><g class="entity" data-qualified-name="SEARCH" id="ent0009" data-source-line="22"><rect x="402.16" y="303.4869" width="139.458" height="52.5938" fill="#C8E6C9" style="stroke:#181818;stroke-width:0.5;" rx="2.5" ry="2.5"/><text x="443.8172" y="326.482" fill="#000000" font-size="14" lengthAdjust="spacing" textLength="56.1436" font-style="italic" font-family="sans-serif">«script»</text><text x="412.16" y="342.7789" fill="#000000" font-size="14" lengthAdjust="spacing" textLength="119.458" font-family="sans-serif">scripts/search.py</text></g><!--entity CFG--><g class="entity" data-qualified-name="CFG" id="ent0010" data-source-line="23"><rect x="657.92" y="433.0769" width="109.9268" height="52.5938" fill="#BBDEFB" style="stroke:#181818;stroke-width:0.5;" rx="2.5" ry="2.5"/><text x="693.9444" y="456.072" fill="#000000" font-size="14" lengthAdjust="spacing" textLength="37.8779" font-style="italic" font-family="sans-serif">«src»</text><text x="667.92" y="472.3689" fill="#000000" font-size="14" lengthAdjust="spacing" textLength="89.9268" font-family="sans-serif">src/config.py</text></g><!--link CSV to IDX--><g class="link" data-entity-1="ent0001" data-entity-2="ent0002" id="lnk11" data-source-line="25" data-link-type="dependency"><path d="M124.88,97.1069 C124.88,119.3669 124.88,146.4769 124.88,168.7169" style="stroke:#181818;stroke-width:1;" fill="none" id="CSV-to-IDX"/><polygon points="124.88,173.7169,128.88,164.7169,124.88,168.7169,120.88,164.7169,124.88,173.7169" fill="#181818" style="stroke:#181818;stroke-width:1;stroke-linejoin:miter;stroke-miterlimit:10;"/><text x="125.88" y="139.9538" fill="#000000" font-size="13" lengthAdjust="spacing" textLength="67.0313" font-family="sans-serif">carga CSV</text></g><!--link IDX to IND--><g class="link" data-entity-1="ent0002" data-entity-2="ent0003" id="lnk12" data-source-line="26" data-link-type="dependency"><path d="M124.88,226.7069 C124.88,248.9569 124.88,276.0669 124.88,298.3169" style="stroke:#181818;stroke-width:1;" fill="none" id="IDX-to-IND"/><polygon points="124.88,303.3169,128.88,294.3169,124.88,298.3169,120.88,294.3169,124.88,303.3169" fill="#181818" style="stroke:#181818;stroke-width:1;stroke-linejoin:miter;stroke-miterlimit:10;"/><text x="125.88" y="269.5538" fill="#000000" font-size="13" lengthAdjust="spacing" textLength="128.21" font-family="sans-serif">indexa documentos</text></g><!--link IND to EMB--><g class="link" data-entity-1="ent0003" data-entity-2="ent0004" id="lnk13" data-source-line="27" data-link-type="dependency"><path d="M117.07,356.3569 C114.13,371.0769 113.31,389.3269 121.88,403.0769 C130.44,416.7869 139.1126,424.7807 153.3526,432.6407" style="stroke:#181818;stroke-width:1;" fill="none" id="IND-to-EMB"/><polygon points="157.73,435.0569,151.7836,427.2058,153.3526,432.6407,147.9176,434.2097,157.73,435.0569" fill="#181818" style="stroke:#181818;stroke-width:1;stroke-linejoin:miter;stroke-miterlimit:10;"/><text x="122.88" y="399.1438" fill="#000000" font-size="13" lengthAdjust="spacing" textLength="112.5376" font-family="sans-serif">pide embeddings</text></g><!--link EMB to JINA--><g class="link" data-entity-1="ent0004" data-entity-2="ent0005" id="lnk14" data-source-line="28" data-link-type="dependency"><path d="M196.61,485.9469 C183.25,495.0969 168.26,505.6469 154.88,515.6769 C131.32,533.3469 109.3616,551.1665 90.0116,567.2865" style="stroke:#181818;stroke-width:1;" fill="none" id="EMB-to-JINA"/><polygon points="86.17,570.4869,95.6451,567.7995,90.0116,567.2865,90.5246,561.653,86.17,570.4869" fill="#181818" style="stroke:#181818;stroke-width:1;stroke-linejoin:miter;stroke-miterlimit:10;"/><text x="155.88" y="528.7438" fill="#000000" font-size="13" lengthAdjust="spacing" textLength="67.8564" font-family="sans-serif">opción API</text></g><!--link EMB to LOC--><g class="link" data-entity-1="ent0004" data-entity-2="ent0006" id="lnk15" data-source-line="29" data-link-type="dependency"><path d="M233.21,485.9669 C232.67,495.3069 232.15,505.9669 231.88,515.6769 C231.47,531.0369 231.7174,543.0628 232.4174,557.4728" style="stroke:#181818;stroke-width:1;" fill="none" id="EMB-to-LOC"/><polygon points="232.66,562.4669,236.2186,553.2834,232.4174,557.4728,228.228,553.6716,232.66,562.4669" fill="#181818" style="stroke:#181818;stroke-width:1;stroke-linejoin:miter;stroke-miterlimit:10;"/><text x="232.88" y="528.7438" fill="#000000" font-size="13" lengthAdjust="spacing" textLength="77.5811" font-family="sans-serif">opción local</text></g><!--link EMB to DBM--><g class="link" data-entity-1="ent0004" data-entity-2="ent0007" id="lnk16" data-source-line="30" data-link-type="dependency"><path d="M275.96,486.0669 C314.66,510.2769 368.0907,543.7058 406.7407,567.8758" style="stroke:#181818;stroke-width:1;" fill="none" id="EMB-to-DBM"/><polygon points="410.98,570.5269,405.4701,562.3635,406.7407,567.8758,401.2284,569.1464,410.98,570.5269" fill="#181818" style="stroke:#181818;stroke-width:1;stroke-linejoin:miter;stroke-miterlimit:10;"/><text x="350.88" y="528.7438" fill="#000000" font-size="13" lengthAdjust="spacing" textLength="93.958" font-family="sans-serif">vectores listos</text></g><!--link DBM to PG--><g class="link" data-entity-1="ent0007" data-entity-2="ent0008" id="lnk17" data-source-line="31" data-link-type="dependency"><path d="M385.66,615.3269 C362.3,624.9269 338.49,639.5469 324.88,661.5669 C320.91,667.9869 320.75,672.2369 324.88,678.5669 C333.25,691.3669 340.951,698.7498 354.331,706.3398" style="stroke:#181818;stroke-width:1;" fill="none" id="DBM-to-PG"/><polygon points="358.68,708.8069,352.8254,700.887,354.331,706.3398,348.8782,707.8454,358.68,708.8069" fill="#181818" style="stroke:#181818;stroke-width:1;stroke-linejoin:miter;stroke-miterlimit:10;"/><text x="325.88" y="674.6338" fill="#000000" font-size="13" lengthAdjust="spacing" textLength="205.6323" font-family="sans-serif">guarda documentos + vectores</text></g><!--link DBM to PG--><g class="link" data-entity-1="ent0007" data-entity-2="ent0008" id="lnk21" data-source-line="35" data-link-type="dependency"><path d="M507.32,623.8969 C529.55,638.0969 547.49,657.1769 535.88,678.5669 C529.34,690.6369 523.0046,697.6461 511.6346,705.4961" style="stroke:#181818;stroke-width:1;" fill="none" id="DBM-to-PG-1"/><polygon points="507.52,708.3369,517.1989,706.5152,511.6346,705.4961,512.6537,699.9318,507.52,708.3369" fill="#181818" style="stroke:#181818;stroke-width:1;stroke-linejoin:miter;stroke-miterlimit:10;"/><text x="539.88" y="674.6338" fill="#000000" font-size="13" lengthAdjust="spacing" textLength="149.1699" font-family="sans-serif">consulta SQL con &lt;=></text></g><!--link SEARCH to CFG--><g class="link" data-entity-1="ent0009" data-entity-2="ent0010" id="lnk18" data-source-line="32" data-link-type="dependency"><path d="M520.36,356.4469 C562.29,378.6469 618.161,408.2276 660.061,430.4076" style="stroke:#181818;stroke-width:1;" fill="none" id="SEARCH-to-CFG"/><polygon points="664.48,432.7469,658.3971,425.001,660.061,430.4076,654.6543,432.0715,664.48,432.7469" fill="#181818" style="stroke:#181818;stroke-width:1;stroke-linejoin:miter;stroke-miterlimit:10;"/><text x="606.88" y="399.1438" fill="#000000" font-size="13" lengthAdjust="spacing" textLength="112.0234" font-family="sans-serif">lee configuración</text></g><!--link SEARCH to EMB--><g class="link" data-entity-1="ent0009" data-entity-2="ent0004" id="lnk19" data-source-line="33" data-link-type="dependency"><path d="M402,337.2469 C361.65,344.0069 311.92,357.8269 275.88,386.0769 C260.67,398.0069 252.0865,412.6471 245.5165,428.2871" style="stroke:#181818;stroke-width:1;" fill="none" id="SEARCH-to-EMB"/><polygon points="243.58,432.8969,250.7535,426.1484,245.5165,428.2871,243.3778,423.0501,243.58,432.8969" fill="#181818" style="stroke:#181818;stroke-width:1;stroke-linejoin:miter;stroke-miterlimit:10;"/><text x="276.88" y="399.1438" fill="#000000" font-size="13" lengthAdjust="spacing" textLength="168.7715" font-family="sans-serif">embedding de la consulta</text></g><!--link SEARCH to DBM--><g class="link" data-entity-1="ent0009" data-entity-2="ent0007" id="lnk20" data-source-line="34" data-link-type="dependency"><path d="M469.97,356.2269 C466.15,406.8069 458.0355,514.531 454.2055,565.381" style="stroke:#181818;stroke-width:1;" fill="none" id="SEARCH-to-DBM"/><polygon points="453.83,570.3669,458.4947,561.6927,454.2055,565.381,450.5173,561.0919,453.83,570.3669" fill="#181818" style="stroke:#181818;stroke-width:1;stroke-linejoin:miter;stroke-miterlimit:10;"/><text x="463.88" y="463.9438" fill="#000000" font-size="13" lengthAdjust="spacing" textLength="149.2588" font-family="sans-serif">búsqueda por similitud</text></g><?plantuml-src VPJ1RjD048Rl-nH3kO1GMa08g1KYsOvJKgKXD1NYW5HjTYTcrVNQtRKZ4E9XU0PkNFDYxDYnuw0K-s3jplVR__nZ-v74jJ88rqby4yulPWa8pPrZpDqfKt3BCrXnSPVQl38opdLkuV4aeRD7M1GbDwb6-C707z6XOZXSAusZaLTE9kVng-EC4rOL9L7ns-HrVFu0PGKXKJHE9j5nHAw8I5v4IVBcE57OVACasiPIyZnwoNuoTgDAtq5exojL-eOgoq6YXiM7s5yXslvnznLA3alCjhzCgGHdRD_vYUGbFtCyApJUobnK6PhIdGgtEG7k85v-WZQ7lghfsfqf8_7RBTtZjFXUAwRZpx1FvK1ZHSEZxU3v67RX_4jYja8fbKbT2oTNqJ7uKXaEuRH6BgVp4Ff1zS5PBhZ-Ofuuto4QWOFISkFMkStGkgUrVkP3UqXEfgZH5NVOMXf7LySiBN9NfXQN7sVm38fquokvhGMB2sWcVInCXzoAh-szbqbu7R__JvOYDskLjdWykUYiC1hRO32gXn60u3RbD4f6wthVvnv0FGp_jkocdZj6-rIdg0CeV0YmdmEZNQhMAGUG5q9jVni85zEkH07kAveIxseKLW1D6EX0AqUFf5sg-cG2I2jkPT-HpwyLi5qW15Ep0MX4Q4BmBttzn3xJzD3Pfuz1S-9TfKlU9njZg-vBAVpVmgbCQLLMyj1WAmUQhL_0yDteBm00?></g></svg>