<svg xmlns="http://www.w3.org/2000/svg" xmlns:xlink="http://www.w3.org/1999/xlink" version="1.1" data-diagram-type="DESCRIPTION" style="width:888px;height:313px;background:#FEFEFE;" width="888px" height="313px" viewBox="0 0 888 313" zoomAndPan="magnify" preserveAspectRatio="none" contentStyleType="text/css"><?plantuml 1.2026.7beta3?><defs/><g><rect x="0" y="0" width="888" height="313" fill="#FEFEFE" style="stroke:none;stroke-width:1;"/><g class="title" data-source-line="4"><text x="242.4859" y="22.9951" fill="#000000" font-size="14" lengthAdjust="spacing" textLength="396.5117" font-weight="700" font-family="sans-serif">Similitud del coseno: el ángulo entre dos vectores</text></g><!--entity Space--><g class="entity" data-qualified-name="Space" id="ent0001" data-source-line="6"><rect x="388.209" y="44.2969" width="186.626" height="36.2969" fill="#E3F2FD" style="stroke:#181818;stroke-width:0.5;" rx="2.5" ry="2.5"/><text x="398.209" y="67.292" fill="#000000" font-size="14" lengthAdjust="spacing" textLength="166.626" font-family="sans-serif">Espacio de embeddings</text></g><!--entity O--><g class="entity" data-qualified-name="O" id="ent0002" data-source-line="8"><ellipse cx="29.519" cy="62.4469" rx="8" ry="8" fill="#F1F1F1" style="stroke:#181818;stroke-width:0.5;"/><text x="6" y="92.442" fill="#000000" font-size="14" lengthAdjust="spacing" textLength="47.0381" font-family="sans-serif">Origen</text></g><g class="entity" data-qualified-name="GMN3" id="ent0004" data-source-line="10"><path d="M73.649,49.2969 L73.649,58.4469 L38.859,62.4469 L73.649,66.4469 L73.649,75.5938 A0,0 0 0 0 73.649,75.5938 L353.3961,75.5938 A0,0 0 0 0 353.3961,75.5938 L353.3961,59.2969 L343.3961,49.2969 L73.649,49.2969 A0,0 0 0 0 73.649,49.2969" style="stroke:#181818;stroke-width:0.5;" fill="#FEFFDD"/><path d="M343.3961,49.2969 L343.3961,59.2969 L353.3961,59.2969 L343.3961,49.2969" style="stroke:#181818;stroke-width:0.5;" fill="#FEFFDD"/><text x="79.649" y="67.292" fill="#000000" font-size="14" lengthAdjust="spacing" textLength="258.7471" font-family="sans-serif">Dos vectores que parten desde aquí.</text></g><!--entity Query--><g class="entity" data-qualified-name="Query" id="ent0006" data-source-line="13"><rect x="609.849" y="44.2969" width="81.3389" height="36.2969" fill="#FFF176" style="stroke:#181818;stroke-width:0.5;" rx="2.5" ry="2.5"/><text x="619.849" y="67.292" fill="#000000" font-size="14" lengthAdjust="spacing" textLength="61.3389" font-family="sans-serif">Consulta</text></g><!--entity DocA--><g class="entity" data-qualified-name="DocA" id="ent0007" data-source-line="14"><rect x="450.959" y="174.5969" width="115.1221" height="36.2969" fill="#C8E6C9" style="stroke:#181818;stroke-width:0.5;" rx="2.5" ry="2.5"/><text x="460.959" y="197.592" fill="#000000" font-size="14" lengthAdjust="spacing" textLength="95.1221" font-family="sans-serif">Documento A</text></g><!--entity DocB--><g class="entity" data-qualified-name="DocB" id="ent0008" data-source-line="15"><rect x="689.949" y="174.5969" width="115.1494" height="36.2969" fill="#FFCC80" style="stroke:#181818;stroke-width:0.5;" rx="2.5" ry="2.5"/><text x="699.949" y="197.592" fill="#000000" font-size="14" lengthAdjust="spacing" textLength="95.1494" font-family="sans-serif">Documento B</text></g><g class="entity" data-qualified-name="GMN11" id="ent0012" data-source-line="21"><path d="M390.939,271.8869 L390.939,298.1838 A0,0 0 0 0 390.939,298.1838 L612.1021,298.1838 A0,0 0 0 0 612.1021,298.1838 L612.1021,281.8869 L602.1021,271.8869 L506.479,271.8869 L507.169,211.1469 L498.479,271.8869 L390.939,271.8869 A0,0 0 0 0 390.939,271.8869" style="stroke:#181818;stroke-width:0.5;" fill="#FEFFDD"/><path d="M602.1021,271.8869 L602.1021,281.8869 L612.1021,281.8869 L602.1021,271.8869" style="stroke:#181818;stroke-width:0.5;" fill="#FEFFDD"/><text x="396.939" y="289.882" fill="#000000" font-size="14" lengthAdjust="spacing" textLength="106.5039" font-weight="700" font-family="sans-serif">Muy parecido</text><text x="507.8931" y="289.882" fill="#000000" font-size="14" lengthAdjust="spacing" textLength="89.209" font-family="sans-serif">a la consulta</text></g><g class="entity" data-qualified-name="GMN14" id="ent0015" data-source-line="25"><path d="M647.549,271.8869 L647.549,298.1838 A0,0 0 0 0 647.549,298.1838 L873.4836,298.1838 A0,0 0 0 0 873.4836,298.1838 L873.4836,281.8869 L863.4836,271.8869 L762.729,271.8869 L750.029,211.1469 L754.729,271.8869 L647.549,271.8869 A0,0 0 0 0 647.549,271.8869" style="stroke:#181818;stroke-width:0.5;" fill="#FEFFDD"/><path d="M863.4836,271.8869 L863.4836,281.8869 L873.4836,281.8869 L863.4836,271.8869" style="stroke:#181818;stroke-width:0.5;" fill="#FEFFDD"/><text x="653.549" y="289.882" fill="#000000" font-size="14" lengthAdjust="spacing" textLength="111.2754" font-weight="700" font-family="sans-serif">Poco parecido</text><text x="769.2746" y="289.882" fill="#000000" font-size="14" lengthAdjust="spacing" textLength="89.209" font-family="sans-serif">a la consulta</text></g><!--link Query to DocA--><g class="link" data-entity-1="ent0006" data-entity-2="ent0007" id="lnk9" data-source-line="17" data-link-type="dependency"><path d="M609.469,81.0269 C594.329,88.7269 577.669,98.7269 564.519,110.5969 C544.059,129.0569 529.5897,152.0109 519.8797,169.7509" style="stroke:#181818;stroke-width:1;" fill="none" id="Query-to-DocA"/><polygon points="517.479,174.1369,525.309,168.1626,519.8797,169.7509,518.2915,164.3216,517.479,174.1369" fill="#181818" style="stroke:#181818;stroke-width:1;stroke-linejoin:miter;stroke-miterlimit:10;"/><text x="565.519" y="124.592" fill="#000000" font-size="14" lengthAdjust="spacing" textLength="113.4287" font-family="sans-serif">ángulo pequeño</text><text x="577.5947" y="140.8889" fill="#000000" font-size="14" lengthAdjust="spacing" textLength="89.2773" font-family="sans-serif">similitud ≈ 1</text></g><!--link Query to DocB--><g class="link" data-entity-1="ent0006" data-entity-2="ent0008" id="lnk10" data-source-line="18" data-link-type="dependency"><path d="M663.799,81.0169 C682.379,105.5869 712.8939,145.9383 731.3839,170.3983" style="stroke:#181818;stroke-width:1;" fill="none" id="Query-to-DocB"/><polygon points="734.399,174.3869,732.1627,164.7953,731.3839,170.3983,725.7809,169.6194,734.399,174.3869" fill="#181818" style="stroke:#181818;stroke-width:1;stroke-linejoin:miter;stroke-miterlimit:10;"/><text x="712.519" y="124.592" fill="#000000" font-size="14" lengthAdjust="spacing" textLength="101.7119" font-family="sans-serif">ángulo grande</text><text x="718.7363" y="140.8889" fill="#000000" font-size="14" lengthAdjust="spacing" textLength="89.2773" font-family="sans-serif">similitud ≈ 0</text></g><?plantuml-src XP5BJiCm48RtFiMetKKgee1AOO7KfCaE5TGj6zUU1gk9f_K3gPm0Zi41M726teIJC4b5bG8IycR6_hzv_FOhOzVIoHeMKgrAHz7gZ2foq2_ovWX_K6XSobY5WcoOcsU4uOKGmOGAOMvgKvaGDMigKEJHqZLmk7kpPQm8q0Q7eCd34wf03hqGZYDfIyPxkLzBPOXfm7g1MXjR-Xv83tD-GEZdvyLPCHL26QSQOEPCYRPLp8IbWC0NZm5eoJd0jDC8DX615mXekRxd5d8JT-yd0gs61ZsQ92FhUKVPbhwFwBPiH54CBqTTrPHKh7adWaahv7m2_MoSZxAhltNfjovjwcNP-5I8VVd1u6RFNn_SMYFFlFkW1-iFndw-li3m64axIEcarVWJu2QjEGiAWUh6dQOJ6vGajt7Rk8BAQ4eIa519_hZzyXrhVkDfYz-Hel_vBm00?></g></svg>