<svg xmlns="http://www.w3.org/2000/svg" xmlns:xlink="http://www.w3.org/1999/xlink" version="1.1" data-diagram-type="DESCRIPTION" style="width:1454px;height:528px;background:#FEFEFE;" width="1454px" height="528px" viewBox="0 0 1454 528" zoomAndPan="magnify" preserveAspectRatio="none" contentStyleType="text/css"><?plantuml 1.2026.7beta3?><defs/><g><rect x="0" y="0" width="1454" height="528" fill="#FEFEFE" style="stroke:none;stroke-width:1;"/><g class="title" data-source-line="5"><text x="541.9578" y="22.9951" fill="#000000" font-size="14" lengthAdjust="spacing" textLength="363.9795" font-weight="700" font-family="sans-serif">Búsqueda tradicional vs. Búsqueda semántica</text></g><!--cluster BT--><g class="cluster" data-qualified-name="BT" id="ent0001" data-source-line="7"><path d="M785.5,93.3169 L954.0898,93.3169 A3.75,3.75 0 0 1 956.5898,95.8169 L963.5898,115.6137 L1171.5,115.6137 A2.5,2.5 0 0 1 1174,118.1137 L1174,332.8469 A2.5,2.5 0 0 1 1171.5,335.3469 L785.5,335.3469 A2.5,2.5 0 0 1 783,332.8469 L783,95.8169 A2.5,2.5 0 0 1 785.5,93.3169" style="stroke:#000000;stroke-width:1.5;" fill="#FFE4E1"/><line x1="783" y1="115.6137" x2="963.5898" y2="115.6137" style="stroke:#000000;stroke-width:1.5;"/><text x="787" y="108.312" fill="#000000" font-size="14" lengthAdjust="spacing" textLength="167.5898" font-weight="700" font-family="sans-serif">Búsqueda tradicional</text></g><!--cluster BS--><g class="cluster" data-qualified-name="BS" id="ent0004" data-source-line="12"><path d="M8.5,85.3169 L173.3643,85.3169 A3.75,3.75 0 0 1 175.8643,87.8169 L182.8643,107.6137 L627.5,107.6137 A2.5,2.5 0 0 1 630,110.1137 L630,348.9969 A2.5,2.5 0 0 1 627.5,351.4969 L8.5,351.4969 A2.5,2.5 0 0 1 6,348.9969 L6,87.8169 A2.5,2.5 0 0 1 8.5,85.3169" style="stroke:#000000;stroke-width:1.5;" fill="#E1F5FE"/><line x1="6" y1="107.6137" x2="182.8643" y2="107.6137" style="stroke:#000000;stroke-width:1.5;"/><text x="10" y="100.312" fill="#000000" font-size="14" lengthAdjust="spacing" textLength="163.8643" font-weight="700" font-family="sans-serif">Búsqueda semántica</text></g><!--entity DB1--><g class="entity" data-qualified-name="BT.DB1" id="ent0002" data-source-line="8"><rect x="883.35" y="128.3169" width="119.3057" height="52.5938" fill="#F1F1F1" style="stroke:#181818;stroke-width:0.5;" rx="2.5" ry="2.5"/><text x="893.35" y="151.312" fill="#000000" font-size="14" lengthAdjust="spacing" textLength="99.3057" font-family="sans-serif">Base de datos</text><text x="893.35" y="167.6089" fill="#000000" font-size="14" lengthAdjust="spacing" textLength="65.6865" font-family="sans-serif">de textos</text></g><!--entity B1--><g class="entity" data-qualified-name="BT.B1" id="ent0003" data-source-line="9"><rect x="802.37" y="283.0569" width="85.2559" height="36.2969" fill="#F1F1F1" style="stroke:#181818;stroke-width:0.5;" rx="2.5" ry="2.5"/><text x="812.37" y="306.052" fill="#000000" font-size="14" lengthAdjust="spacing" textLength="65.2559" font-family="sans-serif">Buscador</text></g><!--entity DB2--><g class="entity" data-qualified-name="BS.DB2" id="ent0005" data-source-line="13"><rect x="177.35" y="128.3169" width="119.3057" height="52.5938" fill="#F1F1F1" style="stroke:#181818;stroke-width:0.5;" rx="2.5" ry="2.5"/><text x="187.35" y="151.312" fill="#000000" font-size="14" lengthAdjust="spacing" textLength="99.3057" font-family="sans-serif">Base de datos</text><text x="187.35" y="167.6089" fill="#000000" font-size="14" lengthAdjust="spacing" textLength="82.2637" font-family="sans-serif">de vectores</text></g><!--entity EMB--><g class="entity" data-qualified-name="BS.EMB" id="ent0006" data-source-line="14"><rect x="437.77" y="128.3169" width="106.4678" height="52.5938" fill="#F1F1F1" style="stroke:#181818;stroke-width:0.5;" rx="2.5" ry="2.5"/><text x="447.77" y="151.312" fill="#000000" font-size="14" lengthAdjust="spacing" textLength="72.5498" font-family="sans-serif">Modelo de</text><text x="447.77" y="167.6089" fill="#000000" font-size="14" lengthAdjust="spacing" textLength="86.4678" font-family="sans-serif">embeddings</text></g><!--entity B2--><g class="entity" data-qualified-name="BS.B2" id="ent0007" data-source-line="15"><rect x="269.54" y="274.9069" width="112.9141" height="52.5938" fill="#F1F1F1" style="stroke:#181818;stroke-width:0.5;" rx="2.5" ry="2.5"/><text x="279.54" y="297.902" fill="#000000" font-size="14" lengthAdjust="spacing" textLength="92.9141" font-family="sans-serif">Buscador por</text><text x="279.54" y="314.1989" fill="#000000" font-size="14" lengthAdjust="spacing" textLength="59.7393" font-family="sans-serif">similitud</text></g><!--entity Usuario--><g class="entity" data-qualified-name="Usuario" id="ent0008" data-source-line="18"><ellipse cx="650.0021" cy="447.9969" rx="8" ry="8" fill="#F1F1F1" style="stroke:#181818;stroke-width:0.5;"/><path d="M650.0021,455.9969 L650.0021,482.9969 M637.0021,463.9969 L663.0021,463.9969 M650.0021,482.9969 L637.0021,497.9969 M650.0021,482.9969 L663.0021,497.9969" style="stroke:#181818;stroke-width:0.5;" fill="none"/><text x="623.4" y="512.492" fill="#000000" font-size="14" lengthAdjust="spacing" textLength="53.2041" font-family="sans-serif">Usuario</text></g><g class="entity" data-qualified-name="GMN18" id="ent0019" data-source-line="32"><path d="M1190.11,133.3169 L1190.11,175.9106 L1439.8952,175.9106 L1439.8952,143.3169 L1429.8952,133.3169 L1190.11,133.3169" style="stroke:#181818;stroke-width:0.5;" fill="#FEFFDD"/><path d="M1429.8952,133.3169 L1429.8952,143.3169 L1439.8952,143.3169 L1429.8952,133.3169" style="stroke:#181818;stroke-width:1;" fill="#FEFFDD"/><text x="1196.11" y="151.312" fill="#000000" font-size="14" lengthAdjust="spacing" textLength="79.0371" font-family="sans-serif">Entiende el</text><text x="1279.5973" y="151.312" fill="#000000" font-size="14" lengthAdjust="spacing" textLength="86.1943" font-weight="700" font-family="sans-serif">significado</text><text x="1365.7916" y="151.312" fill="#000000" font-size="14" lengthAdjust="spacing" textLength="59.1035" font-family="sans-serif">, no solo</text><text x="1196.11" y="167.6089" fill="#000000" font-size="14" lengthAdjust="spacing" textLength="148.1006" font-family="sans-serif">las palabras exactas.</text></g><!--link Usuario to B1--><g class="link" data-entity-1="ent0008" data-entity-2="ent0003" id="lnk9" data-source-line="20" data-link-type="dependency"><path d="M652.68,439.0969 C656.35,417.0469 664.79,390.6269 684,375.4969 C699.95,362.9369 756.46,375.7669 775,367.4969 C798.53,357.0169 816.0668,339.1591 828.7368,323.6491" style="stroke:#181818;stroke-width:1;" fill="none" id="Usuario-to-B1"/><polygon points="831.9,319.7769,823.1085,324.2163,828.7368,323.6491,829.304,329.2775,831.9,319.7769" fill="#181818" style="stroke:#181818;stroke-width:1;stroke-linejoin:miter;stroke-miterlimit:10;"/><text x="685" y="397.492" fill="#000000" font-size="14" lengthAdjust="spacing" textLength="113.1758" font-family="sans-serif">cuidados felinos</text></g><!--link B1 to Usuario--><g class="link" data-entity-1="ent0003" data-entity-2="ent0008" id="lnk12" data-source-line="23" data-link-type="dependency"><path d="M842.4,319.6469 C838.09,342.9169 827.39,384.1069 803,409.4969 C768.24,445.6969 715.4605,462.5063 681.7305,470.3363" style="stroke:#181818;stroke-width:1;" fill="none" id="B1-to-Usuario"/><polygon points="676.86,471.4669,686.5314,473.3281,681.7305,470.3363,684.7224,465.5354,676.86,471.4669" fill="#181818" style="stroke:#181818;stroke-width:1;stroke-linejoin:miter;stroke-miterlimit:10;"/><text x="826" y="389.492" fill="#000000" font-size="14" lengthAdjust="spacing" textLength="73.2402" font-family="sans-serif">resultados</text><text x="830.5596" y="405.7889" fill="#000000" font-size="14" lengthAdjust="spacing" textLength="64.1211" font-family="sans-serif">limitados</text></g><!--link B1 to DB1--><g class="link" data-entity-1="ent0003" data-entity-2="ent0002" id="lnk10" data-source-line="21" data-link-type="dependency"><path d="M887.99,296.3269 C921.41,290.8069 965.73,277.3969 988,244.9069 C1001.84,224.7169 990.0958,203.4193 973.7758,184.9993" style="stroke:#181818;stroke-width:1;" fill="none" id="B1-to-DB1"/><polygon points="970.46,181.2569,973.4344,190.6458,973.7758,184.9993,979.4223,185.3406,970.46,181.2569" fill="#181818" style="stroke:#181818;stroke-width:1;stroke-linejoin:miter;stroke-miterlimit:10;"/><text x="994" y="232.902" fill="#000000" font-size="14" lengthAdjust="spacing" textLength="129.5137" font-family="sans-serif">¿coincide la frase?</text></g><!--link DB1 to B1--><g class="link" data-entity-1="ent0002" data-entity-2="ent0003" id="lnk11" data-source-line="22" data-link-type="dependency"><path d="M882.89,169.8369 C861.47,178.1069 839.56,190.9969 827,210.9069 C813.07,232.9769 822.2688,259.2531 832.1988,278.3031" style="stroke:#181818;stroke-width:1;" fill="none" id="DB1-to-B1"/><polygon points="834.51,282.7369,833.8969,272.9071,832.1988,278.3031,826.8029,276.605,834.51,282.7369" fill="#181818" style="stroke:#181818;stroke-width:1;stroke-linejoin:miter;stroke-miterlimit:10;"/><text x="850.791" y="224.902" fill="#000000" font-size="14" lengthAdjust="spacing" textLength="106.0869" font-family="sans-serif">solo textos con</text><text x="828" y="241.1989" fill="#000000" font-size="14" lengthAdjust="spacing" textLength="151.6689" font-family="sans-serif">"cuidados" y "felinos"</text></g><!--link Usuario to EMB--><g class="link" data-entity-1="ent0008" data-entity-2="ent0006" id="lnk13" data-source-line="25" data-link-type="dependency"><path d="M644.19,439.0569 C633.28,370.1569 609.59,229.0369 596,210.9069 C592.26,205.9169 573.0744,195.5285 549.1544,183.5985" style="stroke:#181818;stroke-width:1;" fill="none" id="Usuario-to-EMB"/><polygon points="544.68,181.3669,550.9486,188.9632,549.1544,183.5985,554.5191,181.8042,544.68,181.3669" fill="#181818" style="stroke:#181818;stroke-width:1;stroke-linejoin:miter;stroke-miterlimit:10;"/><text x="632" y="306.202" fill="#000000" font-size="14" lengthAdjust="spacing" textLength="144.7646" font-family="sans-serif">cómo cuidar un gato</text></g><!--link EMB to B2--><g class="link" data-entity-1="ent0006" data-entity-2="ent0007" id="lnk14" data-source-line="26" data-link-type="dependency"><path d="M469.19,181.2069 C452.73,199.8369 429.1,225.1569 406,244.9069 C393.81,255.3269 383.7851,262.826 370.7951,271.656" style="stroke:#181818;stroke-width:1;" fill="none" id="EMB-to-B2"/><polygon points="366.66,274.4669,376.3519,272.7154,370.7951,271.656,371.8545,266.0993,366.66,274.4669" fill="#181818" style="stroke:#181818;stroke-width:1;stroke-linejoin:miter;stroke-miterlimit:10;"/><text x="441" y="232.902" fill="#000000" font-size="14" lengthAdjust="spacing" textLength="146.9863" font-family="sans-serif">vector de la consulta</text></g><!--link B2 to DB2--><g class="link" data-entity-1="ent0007" data-entity-2="ent0005" id="lnk15" data-source-line="27" data-link-type="dependency"><path d="M310.15,274.4569 C293.93,248.0969 271.4898,211.6556 255.3298,185.3856" style="stroke:#181818;stroke-width:1;" fill="none" id="B2-to-DB2"/><polygon points="252.71,181.1269,254.0186,190.8884,255.3298,185.3856,260.8326,186.6968,252.71,181.1269" fill="#181818" style="stroke:#181818;stroke-width:1;stroke-linejoin:miter;stroke-miterlimit:10;"/><text x="291" y="224.902" fill="#000000" font-size="14" lengthAdjust="spacing" textLength="106.0938" font-family="sans-serif">busca vectores</text><text x="312.5093" y="241.1989" fill="#000000" font-size="14" lengthAdjust="spacing" textLength="63.0752" font-family="sans-serif">cercanos</text></g><!--link DB2 to B2--><g class="link" data-entity-1="ent0005" data-entity-2="ent0007" id="lnk16" data-source-line="28" data-link-type="dependency"><path d="M177.08,165.0369 C115.9,177.2169 34.44,202.1269 69,244.9069 C93.66,275.4369 196.2207,289.4523 264.1307,295.6523" style="stroke:#181818;stroke-width:1;" fill="none" id="DB2-to-B2"/><polygon points="269.11,296.1069,260.511,291.3052,264.1307,295.6523,259.7836,299.272,269.11,296.1069" fill="#181818" style="stroke:#181818;stroke-width:1;stroke-linejoin:miter;stroke-miterlimit:10;"/><text x="112.4033" y="224.902" fill="#000000" font-size="14" lengthAdjust="spacing" textLength="111.0293" font-family="sans-serif">textos similares</text><text x="70" y="241.1989" fill="#000000" font-size="14" lengthAdjust="spacing" textLength="195.8359" font-family="sans-serif">aunque usen otras palabras</text></g><!--link B2 to Usuario--><g class="link" data-entity-1="ent0007" data-entity-2="ent0008" id="lnk17" data-source-line="29" data-link-type="dependency"><path d="M336.43,327.8169 C347.75,352.4069 368.15,388.7869 397,409.4969 C467.5,460.1369 568.6496,472.2764 617.9996,475.3464" style="stroke:#181818;stroke-width:1;" fill="none" id="B2-to-Usuario"/><polygon points="622.99,475.6569,614.2557,471.1058,617.9996,475.3464,613.759,479.0904,622.99,475.6569" fill="#181818" style="stroke:#181818;stroke-width:1;stroke-linejoin:miter;stroke-miterlimit:10;"/><text x="459.5474" y="389.492" fill="#000000" font-size="14" lengthAdjust="spacing" textLength="73.2402" font-family="sans-serif">resultados</text><text x="398" y="405.7889" fill="#000000" font-size="14" lengthAdjust="spacing" textLength="196.335" font-family="sans-serif">semanticamente relevantes</text></g><!--link BS to GMN18--><g class="link" data-entity-1="ent0004" data-entity-2="ent0019" id="lnk20" data-source-line="32" data-link-type="association"><path d="M630.0069,148.0666 C630.1154,147.98 630.2249,147.8927 630.3354,147.8046 C630.7776,147.4523 631.2361,147.0882 631.7107,146.7127 C632.6597,145.9616 633.6729,145.1648 634.7478,144.3258 C636.8975,142.6478 639.2938,140.8009 641.9172,138.8128 C652.4106,130.8606 666.5363,120.6506 683.0375,109.9619 C716.04,88.5844 758.545,65.2919 800.5,54.3169 C838.77,44.2969 1118.51,43.2969 1156.5,54.3169 C1209.2,69.5869 1261.19,108.2069 1290.58,132.8169" style="stroke:#181818;stroke-width:1;stroke-dasharray:7,7;" fill="none" id="BS-GMN18"/></g><?plantuml-src TPAzRXin3CTtFGLnsOmcW8rqoT02hk-sJ4ccNWTQegz2T9GhwOmaHH-cpz2jIu7wnKhfpgvJk7SBGVv4_laH7orlCM0FQzIFNV03cm_U-G0NJPr_5O-4zltMCt6wIy-E891Eo9sZ4yJG1WUN6Y-GVI6ONojrRvFGo_tF-6KWWv026gkjPtImYrSdaKZz_Zidgr6fhSZ1Zg0w-x02ZB2y5v5DVLtFuQi2-JukCP9e08F9nvR5IlGavgUChvRpYHgYHkD3yOhpszbgVyMCnUxWefutRvlw_yLsCX4Vw51kCNAttf3pGhPC_PgCiToDI7sxVAq8jZwq76rldKs36GKkia3CcU4X3XYiLseouFBodNG0Dr3fmHf94M53phAFbH9_3g_6-EzVsblMLcGwX4qGyUyhjPgWmaJP-pGmsJMtV4nQmJDK_oO-QBYHIuYoz0osx4HyCL-Bb5QBolsFtaD96s1Ww6HsbSh1ec8Xp3X467MAZ99QIMXi9YFhFAxZj5lM53IADBMQi49DdPHfOk5mODaj394Ol5nJX2qwN8jno7--9pa5B9VGo_7dmtUq4mT9Z-opmtQV4_YD78diinQKyZcGWzaisexjnkRrpcPlW7qPis3kf3pGaomOuvMIXv1p_W40?></g></svg>