<svg xmlns="http://www.w3.org/2000/svg" xmlns:xlink="http://www.w3.org/1999/xlink" version="1.1" data-diagram-type="DESCRIPTION" style="width:2054px;height:189px;background:#FEFEFE;" width="2054px" height="189px" viewBox="0 0 2054 189" zoomAndPan="magnify" preserveAspectRatio="none" contentStyleType="text/css"><?plantuml 1.2026.7beta3?><defs/><g><rect x="0" y="0" width="2054" height="189" fill="#FEFEFE" style="stroke:none;stroke-width:1;"/><g class="title" data-source-line="4"><text x="829.4507" y="22.9951" fill="#000000" font-size="14" lengthAdjust="spacing" textLength="388.1992" font-weight="700" font-family="sans-serif">Transformer: el modelo que entiende el contexto</text></g><!--entity Input--><g class="entity" data-qualified-name="Input" id="ent0001" data-source-line="8"><rect x="7" y="52.4369" width="140.6816" height="36.2969" fill="#FFF9C4" style="stroke:#181818;stroke-width:0.5;" rx="2.5" ry="2.5"/><text x="17" y="75.432" fill="#000000" font-size="14" lengthAdjust="spacing" textLength="120.6816" font-family="sans-serif">Texto de entrada</text></g><!--entity Tok--><g class="entity" data-qualified-name="Tok" id="ent0002" data-source-line="9"><rect x="411.68" y="52.4369" width="129.3613" height="36.2969" fill="#C8E6C9" style="stroke:#181818;stroke-width:0.5;" rx="2.5" ry="2.5"/><text x="421.68" y="75.432" fill="#000000" font-size="14" lengthAdjust="spacing" textLength="109.3613" font-family="sans-serif">1. Tokenización</text></g><!--entity Emb--><g class="entity" data-qualified-name="Emb" id="ent0003" data-source-line="10"><rect x="706.04" y="44.2969" width="124.5078" height="52.5938" fill="#BBDEFB" style="stroke:#181818;stroke-width:0.5;" rx="2.5" ry="2.5"/><text x="716.04" y="67.292" fill="#000000" font-size="14" lengthAdjust="spacing" textLength="104.5078" font-family="sans-serif">2. Embeddings</text><text x="716.04" y="83.5889" fill="#000000" font-size="14" lengthAdjust="spacing" textLength="73.8418" font-family="sans-serif">+ posición</text></g><!--entity Blocks--><g class="entity" data-qualified-name="Blocks" id="ent0004" data-source-line="11"><rect x="1149.79" y="44.2969" width="184.2949" height="52.5938" fill="#FFE0B2" style="stroke:#181818;stroke-width:0.5;" rx="2.5" ry="2.5"/><text x="1159.79" y="67.292" fill="#000000" font-size="14" lengthAdjust="spacing" textLength="164.2949" font-family="sans-serif">3. Bloques Transformer</text><text x="1159.79" y="83.5889" fill="#000000" font-size="14" lengthAdjust="spacing" textLength="124.7354" font-family="sans-serif">(Attention + MLP)</text></g><!--entity Out--><g class="entity" data-qualified-name="Out" id="ent0005" data-source-line="12"><rect x="1537.32" y="44.2969" width="150.4707" height="52.5938" fill="#E1BEE7" style="stroke:#181818;stroke-width:0.5;" rx="2.5" ry="2.5"/><text x="1547.32" y="67.292" fill="#000000" font-size="14" lengthAdjust="spacing" textLength="120.8525" font-family="sans-serif">4. Probabilidades</text><text x="1547.32" y="83.5889" fill="#000000" font-size="14" lengthAdjust="spacing" textLength="130.4707" font-family="sans-serif">de siguiente token</text></g><!--entity Pred--><g class="entity" data-qualified-name="Pred" id="ent0006" data-source-line="13"><rect x="1947.79" y="52.4369" width="92.3105" height="36.2969" fill="#FFCDD2" style="stroke:#181818;stroke-width:0.5;" rx="2.5" ry="2.5"/><text x="1957.79" y="75.432" fill="#000000" font-size="14" lengthAdjust="spacing" textLength="72.3105" font-family="sans-serif">Predicción</text></g><g class="entity" data-qualified-name="GMN12" id="ent0013" data-source-line="22"><path d="M1046.55,132.2969 L1046.55,174.8906 A0,0 0 0 0 1046.55,174.8906 L1437.3195,174.8906 A0,0 0 0 0 1437.3195,174.8906 L1437.3195,142.2969 L1427.3195,132.2969 L1245.94,132.2969 L1241.94,96.9169 L1237.94,132.2969 L1046.55,132.2969 A0,0 0 0 0 1046.55,132.2969" style="stroke:#181818;stroke-width:0.5;" fill="#FEFFDD"/><path d="M1427.3195,132.2969 L1427.3195,142.2969 L1437.3195,142.2969 L1427.3195,132.2969" style="stroke:#181818;stroke-width:0.5;" fill="#FEFFDD"/><text x="1052.55" y="150.292" fill="#000000" font-size="14" lengthAdjust="spacing" textLength="16.3789" font-family="sans-serif">La</text><text x="1073.3791" y="150.292" fill="#000000" font-size="14" lengthAdjust="spacing" textLength="107.8984" font-weight="700" font-family="sans-serif">self-attention</text><text x="1185.7277" y="150.292" fill="#000000" font-size="14" lengthAdjust="spacing" textLength="181.5078" font-family="sans-serif">permite que cada palabra</text><text x="1052.55" y="166.5889" fill="#000000" font-size="14" lengthAdjust="spacing" textLength="369.7695" font-family="sans-serif">"mire" a las demás y decida cuáles son importantes.</text></g><!--link Input to Tok--><g class="link" data-entity-1="ent0001" data-entity-2="ent0002" id="lnk7" data-source-line="15" data-link-type="dependency"><path d="M147.95,70.5869 C222.34,70.5869 334.28,70.5869 406.42,70.5869" style="stroke:#181818;stroke-width:1;" fill="none" id="Input-to-Tok"/><polygon points="411.42,70.5869,402.42,66.5869,406.42,70.5869,402.42,74.5869,411.42,70.5869" fill="#181818" style="stroke:#181818;stroke-width:1;stroke-linejoin:miter;stroke-miterlimit:10;"/><text x="178.68" y="66.582" fill="#000000" font-size="14" lengthAdjust="spacing" textLength="202.5898" font-family="sans-serif">Data visualization empowers</text></g><!--link Tok to Emb--><g class="link" data-entity-1="ent0002" data-entity-2="ent0003" id="lnk8" data-source-line="16" data-link-type="dependency"><path d="M541.35,70.5869 C590.38,70.5869 652.6,70.5869 700.96,70.5869" style="stroke:#181818;stroke-width:1;" fill="none" id="Tok-to-Emb"/><polygon points="705.96,70.5869,696.96,66.5869,700.96,70.5869,696.96,74.5869,705.96,70.5869" fill="#181818" style="stroke:#181818;stroke-width:1;stroke-linejoin:miter;stroke-miterlimit:10;"/><text x="572.04" y="66.582" fill="#000000" font-size="14" lengthAdjust="spacing" textLength="103.1816" font-family="sans-serif">tokens con IDs</text></g><!--link Emb to Blocks--><g class="link" data-entity-1="ent0003" data-entity-2="ent0004" id="lnk9" data-source-line="17" data-link-type="dependency"><path d="M830.96,70.5869 C912.11,70.5869 1050.43,70.5869 1144.29,70.5869" style="stroke:#181818;stroke-width:1;" fill="none" id="Emb-to-Blocks"/><polygon points="1149.29,70.5869,1140.29,66.5869,1144.29,70.5869,1140.29,74.5869,1149.29,70.5869" fill="#181818" style="stroke:#181818;stroke-width:1;stroke-linejoin:miter;stroke-miterlimit:10;"/><text x="861.55" y="66.582" fill="#000000" font-size="14" lengthAdjust="spacing" textLength="154.6016" font-family="sans-serif">vectores enriquecidos</text></g><!--link Blocks to Out--><g class="link" data-entity-1="ent0004" data-entity-2="ent0005" id="lnk10" data-source-line="18" data-link-type="dependency"><path d="M1334.53,70.5869 C1396.9,70.5869 1473.42,70.5869 1531.85,70.5869" style="stroke:#181818;stroke-width:1;" fill="none" id="Blocks-to-Out"/><polygon points="1536.85,70.5869,1527.85,66.5869,1531.85,70.5869,1527.85,74.5869,1536.85,70.5869" fill="#181818" style="stroke:#181818;stroke-width:1;stroke-linejoin:miter;stroke-miterlimit:10;"/><text x="1468.32" y="66.582" fill="#000000" font-size="14" lengthAdjust="spacing" textLength="38.0146" font-family="sans-serif">logits</text></g><!--link Out to Pred--><g class="link" data-entity-1="ent0005" data-entity-2="ent0006" id="lnk11" data-source-line="19" data-link-type="dependency"><path d="M1688.06,70.5869 C1765.21,70.5869 1878.26,70.5869 1942.49,70.5869" style="stroke:#181818;stroke-width:1;" fill="none" id="Out-to-Pred"/><polygon points="1947.49,70.5869,1938.49,66.5869,1942.49,70.5869,1938.49,74.5869,1947.49,70.5869" fill="#181818" style="stroke:#181818;stroke-width:1;stroke-linejoin:miter;stroke-miterlimit:10;"/><text x="1718.79" y="66.582" fill="#000000" font-size="14" lengthAdjust="spacing" textLength="198.6865" font-family="sans-serif">"users", "people", "teams"...</text></g><?plantuml-src JLB1Rjim3BthAmZdigMBiMJ1jkOmO4uSe4271bYElT0MxGcHHK-Ikwr_qs_O9-J7IhdPQlX2au_aUqyC9-DwzDX1XVMfzJmulMNB7cRxCdqg_4TeQd2mSSykVZUF1CkrKaSJBS7HemiD-uxy1iX2nveimy-1W5mqv3IbT2sTz3koKfQQ2971c_P716qyrT6mKoe5w5gPcHqJ5FGumgF63330ZUk7ADps--ljUefUvd3a4pdpYBKv_tKZMZ8mstukFswlfzXL3cLNaTR6jU7UNK7FmRnsIGrcHR4hzyMqwqCEXMNH5APwxzsRhp4cbUpW2hxT7jwEGmHQdq9YMhulLjCvwnmEdYkiZ3KQDGa34HbCEuXHaSGMaJ7Ek4jIosLHbf-c0mwUjAbV-QR_j6YxswsKUd5eiVWogjz0jiE8y632W5RC6NbIr_ClyY5J2PEmIVFcPNL8xmGtkw1ICXKlMZRm82JOYm7al14dQgCvg4iv8HFZ3LXkJGpgxi9Zv2T4Xf1MleEi9-ujfIWITY7ByrmfnwAzuXYv0sukEnN0BS9y7iWs2_pdytmEFVdEI4CwiLgE0tgqM7cKXgoJSn9Zm8etchhpKu0_4WXPX7euFraH44IY4HUyc1efv4fk51A5Pm00?></g></svg>