<svg xmlns="http://www.w3.org/2000/svg" xmlns:xlink="http://www.w3.org/1999/xlink" version="1.1" data-diagram-type="DESCRIPTION" style="width:523px;height:567px;background:#FEFEFE;" width="523px" height="567px" viewBox="0 0 523 567" zoomAndPan="magnify" preserveAspectRatio="none" contentStyleType="text/css"><?plantuml 1.2026.7beta3?><defs/><g><rect x="0" y="0" width="523" height="567" fill="#FEFEFE" style="stroke:none;stroke-width:1;"/><g class="title" data-source-line="4"><text x="111.6709" y="22.9951" fill="#000000" font-size="14" lengthAdjust="spacing" textLength="292.79" font-weight="700" font-family="sans-serif">De una frase a un vector de números</text></g><!--entity Texto--><g class="entity" data-qualified-name="Texto" id="ent0001" data-source-line="6"><rect x="28.34" y="44.2969" width="160.791" height="46.2969" fill="#F1F1F1" style="stroke:#181818;stroke-width:0.5;" rx="2.5" ry="2.5"/><rect x="169.131" y="49.2969" width="15" height="10" fill="#F1F1F1" style="stroke:#181818;stroke-width:0.5;"/><rect x="167.131" y="51.2969" width="4" height="2" fill="#F1F1F1" style="stroke:#181818;stroke-width:0.5;"/><rect x="167.131" y="55.2969" width="4" height="2" fill="#F1F1F1" style="stroke:#181818;stroke-width:0.5;"/><text x="43.34" y="77.292" fill="#000000" font-size="14" lengthAdjust="spacing" textLength="120.791" font-family="sans-serif">Frase de ejemplo</text></g><!--entity Tokenizer--><g class="entity" data-qualified-name="Tokenizer" id="ent0002" data-source-line="7"><rect x="45.87" y="151.5869" width="125.7363" height="46.2969" fill="#F1F1F1" style="stroke:#181818;stroke-width:0.5;" rx="2.5" ry="2.5"/><rect x="151.6063" y="156.5869" width="15" height="10" fill="#F1F1F1" style="stroke:#181818;stroke-width:0.5;"/><rect x="149.6063" y="158.5869" width="4" height="2" fill="#F1F1F1" style="stroke:#181818;stroke-width:0.5;"/><rect x="149.6063" y="162.5869" width="4" height="2" fill="#F1F1F1" style="stroke:#181818;stroke-width:0.5;"/><text x="60.87" y="184.582" fill="#000000" font-size="14" lengthAdjust="spacing" textLength="85.7363" font-family="sans-serif">Tokenizador</text></g><!--entity Tokens--><g class="entity" data-qualified-name="Tokens" id="ent0003" data-source-line="8"><rect x="63.73" y="275.8869" width="90.0049" height="46.2969" fill="#F1F1F1" style="stroke:#181818;stroke-width:0.5;" rx="2.5" ry="2.5"/><rect x="133.7349" y="280.8869" width="15" height="10" fill="#F1F1F1" style="stroke:#181818;stroke-width:0.5;"/><rect x="131.7349" y="282.8869" width="4" height="2" fill="#F1F1F1" style="stroke:#181818;stroke-width:0.5;"/><rect x="131.7349" y="286.8869" width="4" height="2" fill="#F1F1F1" style="stroke:#181818;stroke-width:0.5;"/><text x="78.73" y="308.882" fill="#000000" font-size="14" lengthAdjust="spacing" textLength="50.0049" font-family="sans-serif">Tokens</text></g><!--entity Modelo--><g class="entity" data-qualified-name="Modelo" id="ent0004" data-source-line="9"><rect x="7" y="383.1869" width="203.4678" height="46.2969" fill="#F1F1F1" style="stroke:#181818;stroke-width:0.5;" rx="2.5" ry="2.5"/><rect x="190.4678" y="388.1869" width="15" height="10" fill="#F1F1F1" style="stroke:#181818;stroke-width:0.5;"/><rect x="188.4678" y="390.1869" width="4" height="2" fill="#F1F1F1" style="stroke:#181818;stroke-width:0.5;"/><rect x="188.4678" y="394.1869" width="4" height="2" fill="#F1F1F1" style="stroke:#181818;stroke-width:0.5;"/><text x="22" y="416.182" fill="#000000" font-size="14" lengthAdjust="spacing" textLength="163.4678" font-family="sans-serif">Modelo de embeddings</text></g><!--entity Vector--><g class="entity" data-qualified-name="Vector" id="ent0005" data-source-line="10"><rect x="30.71" y="507.4769" width="156.0537" height="46.2969" fill="#F1F1F1" style="stroke:#181818;stroke-width:0.5;" rx="2.5" ry="2.5"/><rect x="166.7637" y="512.4769" width="15" height="10" fill="#F1F1F1" style="stroke:#181818;stroke-width:0.5;"/><rect x="164.7637" y="514.4769" width="4" height="2" fill="#F1F1F1" style="stroke:#181818;stroke-width:0.5;"/><rect x="164.7637" y="518.4769" width="4" height="2" fill="#F1F1F1" style="stroke:#181818;stroke-width:0.5;"/><text x="45.71" y="540.472" fill="#000000" font-size="14" lengthAdjust="spacing" textLength="116.0537" font-family="sans-serif">Vector numérico</text></g><g class="entity" data-qualified-name="GMN10" id="ent0011" data-source-line="18"><path d="M221.33,509.3269 L221.33,526.6269 L187.23,530.6269 L221.33,534.6269 L221.33,551.9206 A0,0 0 0 0 221.33,551.9206 L508.1318,551.9206 A0,0 0 0 0 508.1318,551.9206 L508.1318,519.3269 L498.1318,509.3269 L221.33,509.3269 A0,0 0 0 0 221.33,509.3269" style="stroke:#181818;stroke-width:0.5;" fill="#FEFFDD"/><path d="M498.1318,509.3269 L498.1318,519.3269 L508.1318,519.3269 L498.1318,509.3269" style="stroke:#181818;stroke-width:0.5;" fill="#FEFFDD"/><text x="227.33" y="527.322" fill="#000000" font-size="14" lengthAdjust="spacing" textLength="136.8555" font-family="sans-serif">El vector captura el</text><text x="368.6357" y="527.322" fill="#000000" font-size="14" lengthAdjust="spacing" textLength="86.1943" font-weight="700" font-family="sans-serif">significado</text><text x="454.83" y="527.322" fill="#000000" font-size="14" lengthAdjust="spacing" textLength="4.4502" font-family="sans-serif">.</text><text x="227.33" y="543.6189" fill="#000000" font-size="14" lengthAdjust="spacing" textLength="265.8018" font-family="sans-serif">Frases similares = vectores cercanos.</text></g><!--link Texto to Tokenizer--><g class="link" data-entity-1="ent0001" data-entity-2="ent0002" id="lnk6" data-source-line="12" data-link-type="dependency"><path d="M108.73,91.0269 C108.73,108.7969 108.73,128.4269 108.73,146.1869" style="stroke:#181818;stroke-width:1;" fill="none" id="Texto-to-Tokenizer"/><polygon points="108.73,151.1869,112.73,142.1869,108.73,146.1869,104.73,142.1869,108.73,151.1869" fill="#181818" style="stroke:#181818;stroke-width:1;stroke-linejoin:miter;stroke-miterlimit:10;"/></g><!--link Tokenizer to Tokens--><g class="link" data-entity-1="ent0002" data-entity-2="ent0003" id="lnk7" data-source-line="13" data-link-type="dependency"><path d="M108.73,198.1669 C108.73,220.2369 108.73,248.7269 108.73,270.7469" style="stroke:#181818;stroke-width:1;" fill="none" id="Tokenizer-to-Tokens"/><polygon points="108.73,275.7469,112.73,266.7469,108.73,270.7469,104.73,266.7469,108.73,275.7469" fill="#181818" style="stroke:#181818;stroke-width:1;stroke-linejoin:miter;stroke-miterlimit:10;"/><text x="109.73" y="241.882" fill="#000000" font-size="14" lengthAdjust="spacing" textLength="121.0371" font-family="sans-serif">separa en tokens</text></g><!--link Tokens to Modelo--><g class="link" data-entity-1="ent0003" data-entity-2="ent0004" id="lnk8" data-source-line="14" data-link-type="dependency"><path d="M108.73,322.6269 C108.73,340.3869 108.73,360.0269 108.73,377.7769" style="stroke:#181818;stroke-width:1;" fill="none" id="Tokens-to-Modelo"/><polygon points="108.73,382.7769,112.73,373.7769,108.73,377.7769,104.73,373.7769,108.73,382.7769" fill="#181818" style="stroke:#181818;stroke-width:1;stroke-linejoin:miter;stroke-miterlimit:10;"/></g><!--link Modelo to Vector--><g class="link" data-entity-1="ent0004" data-entity-2="ent0005" id="lnk9" data-source-line="15" data-link-type="dependency"><path d="M108.73,429.7669 C108.73,451.8269 108.73,480.3269 108.73,502.3369" style="stroke:#181818;stroke-width:1;" fill="none" id="Modelo-to-Vector"/><polygon points="108.73,507.3369,112.73,498.3369,108.73,502.3369,104.73,498.3369,108.73,507.3369" fill="#181818" style="stroke:#181818;stroke-width:1;stroke-linejoin:miter;stroke-miterlimit:10;"/><text x="109.73" y="473.472" fill="#000000" font-size="14" lengthAdjust="spacing" textLength="98.1777" font-family="sans-serif">genera vector</text></g><?plantuml-src JP2nJWCn38RtF8KbjfDQ2Ocf4YpGsvYeM4uCQU8xmkNiAivLg6_4Ax3snKWkQOko_Fb_nvzZ6HqTTD0JxBKPXy0psMVs7E2ktUQZv5fXiTUpZorJV7CdXFi7fNOkUeGNX9aqz44BWauQZcXYQc8HwFmxOM1HgckNF7duXTF1ymTeWHr-HrRTZaSaTzAMGx7B7KEDvEQAwbxPekUbrRH7QnqDfQ04gdilV9gdyqzmfg2AcOREI5YjdlvHhkhc2sn0CFyTa20MT4roKMNLMR9JgHiOa30zErOWSKG8RlYCmFrb382jl-p9w4ESCyT3quWRoFNEf5qqpJhLBNiJ43SvhqDIZ_LTaWQ3qSIoLaWMCkWF?></g></svg>